<svg xmlns="http://www.w3.org/2000/svg" viewBox="0 0 400 300">
  <g stroke="#4a4034" stroke-width="1.3" fill="none">
    <path d="M200 30 L200 44"/>
    <path d="M176 44 Q176 34 200 34 Q224 34 224 44 Z"/>
    <path d="M160 60 C158 110, 150 150, 118 220 C108 244, 104 250, 100 258 L300 258 C296 250, 292 244, 282 220 C250 150, 242 110, 240 60"/>
    <path d="M160 60 Q200 74 240 60"/>
    <path d="M100 258 Q200 278 300 258"/>
    <path d="M118 220 Q200 238 282 220" stroke-dasharray="4 5" opacity="0.6"/>
    <path d="M200 44 V262" stroke-dasharray="3 6" opacity="0.5"/>
    <ellipse cx="200" cy="262" rx="14" ry="6" opacity="0.7"/>
  </g>
</svg>
