<svg xmlns="http://www.w3.org/2000/svg" viewBox="0 0 400 300">
  <g stroke="#4a4034" stroke-width="1.3" fill="none">
    <circle cx="170" cy="170" r="88"/>
    <circle cx="170" cy="170" r="12"/>
    <g>
      <path d="M170 82 L178 96 L162 100 Z"/>
      <path d="M232 108 L232 124 L216 116 Z"/>
      <path d="M258 170 L242 178 L242 162 Z"/>
      <path d="M232 232 L216 224 L232 216 Z"/>
      <path d="M170 258 L162 242 L178 240 Z"/>
      <path d="M108 232 L124 224 L124 240 Z"/>
      <path d="M82 170 L98 162 L98 178 Z"/>
      <path d="M108 108 L124 116 L108 124 Z"/>
    </g>
    <path d="M300 60 L268 150 M300 60 L322 150 L268 150" />
    <circle cx="300" cy="60" r="6"/>
  </g>
</svg>
