<svg xmlns="http://www.w3.org/2000/svg" viewBox="0 0 640 200">
  <g stroke="#3a332a" stroke-width="7" stroke-linecap="round" opacity="0.85">
    <path d="M18 100 V100 M32 62 V138 M46 40 V160 M60 34 V166 M74 44 V156 M88 58 V142 M102 70 V130 M116 80 V120 M130 74 V126 M144 84 V116 M158 90 V110 M172 86 V114 M186 92 V108 M200 95 V105 M214 90 V110 M228 94 V106 M242 97 V103 M256 93 V107 M270 96 V104 M284 98 V102 M298 95 V105 M312 97 V103 M326 99 V101 M340 97 V103 M354 99 V101 M368 98 V102 M382 100 V100 M396 99 V101 M410 100 V100 M424 99 V101 M438 100 V100 M452 100 V100 M466 99 V101 M480 100 V100 M494 100 V100 M508 100 V100 M522 100 V100 M536 100 V100 M550 100 V100 M564 100 V100 M578 100 V100 M592 100 V100 M606 100 V100"/>
  </g>
</svg>
