<svg xmlns="http://www.w3.org/2000/svg" viewBox="0 0 400 400">
  <g stroke="#4a4034" stroke-width="1.3" fill="none">
    <polygon points="200,40 248,68 248,124 200,152 152,124 152,68"/>
    <polygon points="200,152 248,124 296,152 296,208 248,236 200,208"/>
    <polygon points="200,152 152,124 104,152 104,208 152,236 200,208"/>
    <polygon points="200,208 248,236 248,292 200,320 152,292 152,236"/>
    <polygon points="296,208 344,236 344,292 296,320 248,292 248,236"/>
    <polygon points="104,208 152,236 152,292 104,320 56,292 56,236"/>
    <path d="M200,152 V208 M248,124 L248,236 M152,124 L152,236"/>
    <polygon points="248,68 296,96 296,152 248,124" opacity="0.9"/>
    <polygon points="152,68 104,96 104,152 152,124" opacity="0.9"/>
  </g>
</svg>
