<svg xmlns="http://www.w3.org/2000/svg" viewBox="0 0 400 400">
  <g stroke="#4a4034" stroke-width="0.8" fill="none" opacity="0.5">
    <path d="M40 0 V400 M0 40 H400 M80 0 V400 M0 80 H400 M120 0 V400 M0 120 H400 M160 0 V400 M0 160 H400 M200 0 V400 M0 200 H400 M240 0 V400 M0 240 H400 M280 0 V400 M0 280 H400 M320 0 V400 M0 320 H400 M360 0 V400 M0 360 H400"/>
  </g>
  <g fill="#4a4034" opacity="0.34">
    <rect x="0" y="0" width="40" height="40"/><rect x="40" y="0" width="40" height="40"/><rect x="160" y="0" width="40" height="40"/><rect x="200" y="0" width="40" height="40"/><rect x="320" y="0" width="40" height="40"/><rect x="360" y="0" width="40" height="40"/><rect x="40" y="40" width="40" height="40"/><rect x="80" y="40" width="40" height="40"/><rect x="200" y="40" width="40" height="40"/><rect x="240" y="40" width="40" height="40"/><rect x="360" y="40" width="40" height="40"/><rect x="80" y="80" width="40" height="40"/><rect x="120" y="80" width="40" height="40"/><rect x="240" y="80" width="40" height="40"/><rect x="280" y="80" width="40" height="40"/><rect x="0" y="120" width="40" height="40"/><rect x="120" y="120" width="40" height="40"/><rect x="160" y="120" width="40" height="40"/><rect x="280" y="120" width="40" height="40"/><rect x="320" y="120" width="40" height="40"/><rect x="0" y="160" width="40" height="40"/><rect x="40" y="160" width="40" height="40"/><rect x="160" y="160" width="40" height="40"/><rect x="200" y="160" width="40" height="40"/><rect x="320" y="160" width="40" height="40"/><rect x="360" y="160" width="40" height="40"/><rect x="40" y="200" width="40" height="40"/><rect x="80" y="200" width="40" height="40"/><rect x="200" y="200" width="40" height="40"/><rect x="240" y="200" width="40" height="40"/><rect x="360" y="200" width="40" height="40"/><rect x="80" y="240" width="40" height="40"/><rect x="120" y="240" width="40" height="40"/><rect x="240" y="240" width="40" height="40"/><rect x="280" y="240" width="40" height="40"/><rect x="0" y="280" width="40" height="40"/><rect x="120" y="280" width="40" height="40"/><rect x="160" y="280" width="40" height="40"/><rect x="280" y="280" width="40" height="40"/><rect x="320" y="280" width="40" height="40"/><rect x="0" y="320" width="40" height="40"/><rect x="40" y="320" width="40" height="40"/><rect x="160" y="320" width="40" height="40"/><rect x="200" y="320" width="40" height="40"/><rect x="320" y="320" width="40" height="40"/><rect x="360" y="320" width="40" height="40"/><rect x="40" y="360" width="40" height="40"/><rect x="80" y="360" width="40" height="40"/><rect x="200" y="360" width="40" height="40"/><rect x="240" y="360" width="40" height="40"/><rect x="360" y="360" width="40" height="40"/>
  </g>
</svg>
