<svg xmlns="http://www.w3.org/2000/svg" viewBox="0 0 640 200">
  <g stroke="#3a332a" stroke-width="7" stroke-linecap="round" opacity="0.85">
    <path d="M18 92 V108 M32 84 V116 M46 74 V126 M60 60 V140 M74 48 V152 M88 56 V144 M102 66 V134 M116 52 V148 M130 44 V156 M144 58 V142 M158 70 V130 M172 62 V138 M186 50 V150 M200 64 V136 M214 76 V124 M228 68 V132 M242 80 V120 M256 72 V128 M270 84 V116 M284 78 V122 M298 70 V130 M312 82 V118 M326 88 V112 M340 80 V120 M354 74 V126 M368 84 V116 M382 90 V110 M396 84 V116 M410 78 V122 M424 86 V114 M438 92 V108 M452 88 V112 M466 82 V118 M480 90 V110 M494 94 V106 M508 90 V110 M522 86 V114 M536 92 V108 M550 95 V105 M564 92 V108 M578 96 V104 M592 94 V106 M606 97 V103 M620 96 V104"/>
  </g>
</svg>
