<svg xmlns="http://www.w3.org/2000/svg" viewBox="0 0 640 200">
  <g stroke="#3a332a" stroke-width="7" stroke-linecap="round" opacity="0.85">
    <path d="M18 97 V103 M32 97 V103 M46 97 V103 M60 97 V103 M74 97 V103 M88 97 V103 M102 97 V103 M116 97 V103 M130 97 V103 M144 97 V103 M158 97 V103 M172 97 V103 M186 97 V103 M200 97 V103 M214 97 V103 M228 97 V103 M242 97 V103 M256 97 V103 M270 97 V103 M284 97 V103 M298 92 V108 M312 49 V151 M326 44 V156 M340 51 V149 M354 84 V116 M368 93 V107 M382 96 V104 M396 97 V103 M410 97 V103 M424 97 V103 M438 97 V103 M452 97 V103 M466 97 V103 M480 90 V110 M494 96 V104 M508 59 V141 M522 61 V139 M536 66 V134 M550 87 V113 M564 93 V107 M578 97 V103 M592 97 V103 M606 97 V103"/>
  </g>
</svg>
