<svg xmlns="http://www.w3.org/2000/svg" viewBox="0 0 640 200">
  <g stroke="#3a332a" stroke-width="7" stroke-linecap="round" opacity="0.85">
    <path d="M18 91 V109 M32 96 V104 M46 97 V103 M60 97 V103 M74 90 V110 M88 96 V104 M102 49 V151 M116 44 V156 M130 53 V147 M144 89 V111 M158 93 V107 M172 96 V104 M186 97 V103 M200 97 V103 M214 97 V103 M228 97 V103 M242 97 V103 M256 94 V106 M270 97 V103 M284 60 V140 M298 51 V149 M312 44 V156 M326 86 V114 M340 91 V109 M354 96 V104 M368 96 V104 M382 96 V104 M396 97 V103 M410 97 V103 M424 97 V103 M438 97 V103 M452 97 V103 M466 97 V103 M480 97 V103 M494 97 V103 M508 97 V103 M522 97 V103 M536 97 V103 M550 97 V103 M564 97 V103 M578 97 V103 M592 97 V103 M606 97 V103"/>
  </g>
</svg>
